# 3ds Max Wavefront OBJ Exporter v0.97b - (c)2007 guruware
# File Created: 28.12.2021 00:03:08

mtllib sign.mtl

#
# object Mesh_0015
#

v  -72.0703 176.9531 29.9805
v  -52.1484 104.9805 29.9805
v  -89.6484 106.9336 29.9805
v  -89.6484 106.9336 9.9610
v  -52.1484 104.9805 9.9610
v  -72.0703 176.9531 9.9610
v  -98.0469 92.9688 9.9610
v  -98.0469 92.9687 29.9805
v  37.9883 98.9258 29.9805
v  -24.0234 190.9180 29.9805
v  -94.0430 196.9727 29.9805
v  -94.0430 196.9727 9.9610
v  -9.9609 211.9141 -5.3711
v  -13.0859 211.9141 2.9297
v  -13.0859 -15.0391 2.9297
v  -9.9609 211.9141 6.3477
v  -9.9609 211.9141 9.8633
v  -9.9609 -15.0391 9.8633
v  6.3477 211.9141 9.8633
v  10.8398 211.9141 8.8868
v  10.8398 -15.0391 8.8867
v  11.9141 211.9141 3.3203
v  13.9648 211.9141 0.0000
v  13.9648 -15.0391 -0.0000
v  -60.0586 178.9063 35.9375
v  -57.5195 182.9102 32.9102
v  -64.0625 177.3438 32.9102
v  82.5195 101.9531 29.9805
v  83.9844 92.9687 29.9805
v  60.2539 104.9805 29.9805
v  67.9688 132.9102 29.9805
v  73.8281 178.9063 29.9805
v  85.9375 196.9727 29.9805
v  84.8633 180.9570 29.9805
v  84.8633 180.9570 9.9610
v  85.9375 196.9727 9.9610
v  73.8281 178.9063 9.9610
v  -24.0234 190.9180 9.9610
v  67.9688 132.9102 9.9610
v  37.9883 98.9258 9.9610
v  60.2539 104.9805 9.9610
v  83.9844 92.9688 9.9610
v  82.5195 101.9531 9.9610
v  -92.8711 102.9297 29.9805
v  -92.8711 102.9297 9.9610
v  -90.0391 180.9570 29.9805
v  -90.0391 180.9570 9.9610
v  -85.8398 141.9922 29.9805
v  -89.9414 144.9219 29.9805
v  -90.0391 175.0000 29.9805
v  -90.0391 175.0000 9.9610
v  -89.9414 144.9219 9.9610
v  -85.8398 141.9922 9.9610
v  77.9297 133.9844 29.9805
v  83.3008 176.9531 29.9805
v  77.9297 133.9844 9.9610
v  83.3008 176.9531 9.9610
v  80.5664 106.9336 29.9805
v  77.9297 130.9570 29.9805
v  80.5664 106.9336 9.9610
v  77.9297 130.9570 9.9610
v  8.8867 -15.0391 -6.4453
v  8.8867 211.9141 -6.4453
v  9.8633 -15.0391 -9.9609
v  9.8633 211.9141 -9.9609
v  1.2695 -15.0391 -12.9883
v  1.2695 211.9141 -12.9882
v  0.0000 -15.0391 -11.0352
v  0.0000 211.9141 -11.0351
v  -3.4180 -15.0391 -12.9883
v  -3.4180 211.9141 -12.9882
v  -9.9609 -15.0391 -9.9609
v  -9.9609 211.9141 -9.9609
v  -9.9609 -15.0391 -5.3711
v  -9.9609 -15.0391 6.3477
v  0.0000 -15.0391 11.9141
v  -6.4453 -15.0391 9.8633
v  -6.4453 211.9141 9.8633
v  6.3477 -15.0391 9.8633
v  0.0000 211.9141 11.9141
v  11.9141 -15.0391 3.3203
v  -64.0625 171.7773 30.9571
v  -52.2461 182.9102 30.9571
v  61.9141 182.9102 30.9571
v  -64.0625 102.9297 30.9570
v  61.9141 102.9297 30.9570
v  0.0977 -15.0391 -0.0977
v  0.0977 211.9141 -0.0976
# 88 vertices

vn 0.0000 0.0000 -1.0000
vn -0.0000 -0.0000 1.0000
vn -0.0437 0.9990 0.0000
vn -0.0861 -0.9963 -0.0000
vn 0.9359 -0.0000 0.3523
vn 1.0000 0.0000 -0.0000
vn -0.2124 0.0000 -0.9772
vn -0.8508 0.0000 -0.5255
vn -0.5878 0.6909 0.4208
vn 0.5878 -0.6909 -0.4208
vn -0.0000 0.0000 -1.0000
vn 0.0000 -0.0000 1.0000
vn -0.1924 -0.9813 -0.0000
vn -0.1072 0.9942 -0.0000
vn 0.9701 0.2425 -0.0000
vn 0.2175 0.9761 -0.0000
vn 0.1081 -0.9941 -0.0000
vn 0.1284 0.9917 0.0000
vn 0.0467 0.9989 0.0000
vn 0.0425 0.9991 0.0000
vn -0.0156 -0.9999 -0.0000
vn -0.0088 -1.0000 -0.0000
vn 0.0550 -0.9985 -0.0000
vn 0.8874 -0.4611 -0.0000
vn 0.0503 -0.9987 -0.0000
vn 0.0520 0.9986 0.0000
vn -0.9923 0.1240 -0.0000
vn -0.9978 0.0669 -0.0000
vn -0.1827 0.9832 -0.0000
vn -0.2019 -0.9794 -0.0000
vn -0.9940 -0.1091 -0.0000
vn -0.9870 -0.1609 -0.0000
vn -0.1347 -0.9909 -0.0000
vn -0.0957 0.9954 0.0000
vn 1.0000 0.0032 -0.0000
vn 0.5812 0.8137 -0.0000
vn 0.9942 -0.1080 -0.0000
vn -0.7855 -0.0000 0.6189
vn -0.9635 0.0000 -0.2676
vn -0.3323 -0.0000 0.9432
vn 0.8384 -0.0000 0.5450
vn -0.4961 -0.0000 0.8682
vn 0.4199 -0.0000 0.9076
vn 0.9838 -0.0000 0.1791
vn 1.0000 -0.0000 0.0086
vn 0.9322 0.0000 -0.3619
vn 0.7425 0.0000 -0.6699
vn 0.7380 0.0000 -0.6748
vn 0.3032 0.0000 -0.9529
vn 0.1534 0.0000 -0.9882
vn 0.0056 0.0000 -1.0000
vn -0.2602 0.0000 -0.9655
vn -0.3062 0.0000 -0.9520
vn -0.2971 0.0000 -0.9549
vn -0.0022 0.0000 -1.0000
vn -0.9316 0.0000 -0.3634
vn -0.9811 0.0000 -0.1933
vn -0.9819 0.0000 -0.1895
vn -0.2711 0.3187 -0.9083
vn -0.3175 0.3418 -0.8845
vn -0.1690 0.1907 -0.9670
vn -0.0853 0.0905 -0.9922
vn 0.0853 -0.0905 0.9922
vn 0.1690 -0.1907 0.9670
vn 0.3175 -0.3418 0.8845
vn 0.2711 -0.3187 0.9083
vn 0.0000 1.0000 0.0000
vn -0.0000 1.0000 0.0000
vn 0.0000 -1.0000 -0.0000
# 69 vertex normals

vt 0.0830 -0.6563 0.0000
vt 0.1465 -0.9336 0.0000
vt 0.0264 -0.9258 0.0000
vt 0.9893 -0.8691 0.0000
vt 0.8721 -0.8691 0.0000
vt 0.8721 -0.9775 0.0000
vt 0.8721 -0.0488 0.0000
vt 0.8721 -0.3350 0.0000
vt 0.9893 -0.3350 0.0000
vt 0.8242 -0.0254 0.0000
vt 0.8506 -0.0254 0.0000
vt 0.8506 -0.9756 0.0000
vt 0.6250 -0.0254 0.0000
vt 0.6328 -0.0254 0.0000
vt 0.6328 -0.9756 0.0000
vt 0.6816 -0.0254 0.0000
vt 0.6943 -0.0254 0.0000
vt 0.6943 -0.9756 0.0000
vt 0.7100 -0.0254 0.0000
vt 0.7207 -0.0254 0.0000
vt 0.7207 -0.9756 0.0000
vt 0.0078 -0.0039 0.0000
vt 0.0400 -0.0039 0.0000
vt 0.0098 -0.0313 0.0000
vt 0.5781 -0.9453 0.0000
vt 0.5830 -0.9795 0.0000
vt 0.5068 -0.9336 0.0000
vt 0.4355 -0.9561 0.0000
vt 0.5322 -0.8252 0.0000
vt 0.2363 -0.6025 0.0000
vt 0.5508 -0.6484 0.0000
vt 0.5898 -0.5791 0.0000
vt 0.5859 -0.6406 0.0000
vt 0.0000 -0.9795 0.0000
vt 0.0156 -0.9414 0.0000
vt 0.0254 -0.6406 0.0000
vt 0.0127 -0.5791 0.0000
vt 0.0381 -0.7910 0.0000
vt 0.0254 -0.7793 0.0000
vt 0.0254 -0.6641 0.0000
vt 0.5635 -0.8223 0.0000
vt 0.5811 -0.6563 0.0000
vt 0.5723 -0.9258 0.0000
vt 0.5635 -0.8330 0.0000
vt 0.9893 -0.6641 0.0000
vt 0.9893 -0.6738 0.0000
vt 0.8721 -0.6641 0.0000
vt 0.8721 -0.6738 0.0000
vt 0.9893 -0.6592 0.0000
vt 0.8721 -0.6592 0.0000
vt 0.9893 -0.4170 0.0000
vt 0.8721 -0.4170 0.0000
vt 0.9893 -0.4375 0.0000
vt 0.8721 -0.4375 0.0000
vt 0.9893 -0.4482 0.0000
vt 0.8721 -0.4482 0.0000
vt 0.9893 -0.9775 0.0000
vt 0.9893 -0.0488 0.0000
vt 0.9893 -0.8184 0.0000
vt 0.8721 -0.8184 0.0000
vt 0.9893 -0.8076 0.0000
vt 0.8721 -0.8076 0.0000
vt 0.9893 -0.7979 0.0000
vt 0.8721 -0.7979 0.0000
vt 0.9893 -0.4277 0.0000
vt 0.8721 -0.4277 0.0000
vt 0.9893 -0.8232 0.0000
vt 0.8721 -0.8232 0.0000
vt 0.9893 -0.6025 0.0000
vt 0.8721 -0.6025 0.0000
vt 0.9893 -0.6172 0.0000
vt 0.8721 -0.6172 0.0000
vt 0.7451 -0.9756 0.0000
vt 0.7451 -0.0254 0.0000
vt 0.7520 -0.9756 0.0000
vt 0.7520 -0.0254 0.0000
vt 0.7783 -0.9756 0.0000
vt 0.7783 -0.0254 0.0000
vt 0.7832 -0.9756 0.0000
vt 0.7832 -0.0254 0.0000
vt 0.7930 -0.9756 0.0000
vt 0.7930 -0.0254 0.0000
vt 0.8125 -0.9756 0.0000
vt 0.8125 -0.0254 0.0000
vt 0.8242 -0.9756 0.0000
vt 0.6250 -0.9756 0.0000
vt 0.6123 -0.9756 0.0000
vt 0.6123 -0.0254 0.0000
vt 0.6611 -0.9756 0.0000
vt 0.6406 -0.9756 0.0000
vt 0.6406 -0.0254 0.0000
vt 0.6816 -0.9756 0.0000
vt 0.6611 -0.0254 0.0000
vt 0.7100 -0.9756 0.0000
vt 0.0098 -0.0596 0.0000
vt 0.0645 -0.0039 0.0000
vt 0.5996 -0.0039 0.0000
vt 0.0098 -0.4033 0.0000
vt 0.5996 -0.4033 0.0000
vt 0.4111 -0.4990 0.0000
vt 0.5088 -0.4990 0.0000
vt 0.4727 -0.4561 0.0000
vt 0.4795 -0.4316 0.0000
vt 0.4189 -0.4111 0.0000
vt 0.4102 -0.4238 0.0000
vt 0.3857 -0.4111 0.0000
vt 0.3398 -0.4316 0.0000
vt 0.3398 -0.4629 0.0000
vt 0.3184 -0.5195 0.0000
vt 0.3398 -0.5430 0.0000
vt 0.3398 -0.5664 0.0000
vt 0.3652 -0.5674 0.0000
vt 0.4102 -0.5811 0.0000
vt 0.4541 -0.5674 0.0000
vt 0.4863 -0.5596 0.0000
vt 0.4941 -0.5225 0.0000
vt 0.1914 -0.4990 0.0000
vt 0.2881 -0.4990 0.0000
vt 0.2734 -0.5225 0.0000
vt 0.2666 -0.5596 0.0000
vt 0.2344 -0.5674 0.0000
vt 0.1895 -0.5811 0.0000
vt 0.1455 -0.5674 0.0000
vt 0.1201 -0.5664 0.0000
vt 0.1201 -0.5430 0.0000
vt 0.0986 -0.5195 0.0000
vt 0.1201 -0.4629 0.0000
vt 0.1201 -0.4316 0.0000
vt 0.1660 -0.4111 0.0000
vt 0.1895 -0.4238 0.0000
vt 0.1992 -0.4111 0.0000
vt 0.2598 -0.4316 0.0000
vt 0.2529 -0.4561 0.0000
# 133 texture coords

g Mesh_0015
usemtl Tex_0010_0_dds
s 1
f 1/1/1 2/2/1 3/3/1 
s 2
f 4/3/2 5/2/2 6/1/2 
s 3
f 7/4/3 8/5/3 9/6/3 
s 4
f 10/7/4 11/8/4 12/9/4 
s 5
f 13/10/5 14/11/5 15/12/5 
s 6
f 16/13/6 17/14/6 18/15/6 
s 7
f 19/16/7 20/17/7 21/18/7 
s 8
f 22/19/8 23/20/8 24/21/8 
s 9
f 25/22/9 26/23/9 27/24/9 
s 10
f 27/24/10 26/23/10 25/22/10 
s 11
f 28/25/1 29/26/1 30/27/1 
s 12
f 29/26/1 9/28/1 30/27/1 
s 13
f 30/27/1 9/28/1 31/29/1 
s 14
f 9/28/1 10/30/1 31/29/1 
s 15
f 31/29/1 10/30/1 32/31/11 
s 16
f 10/30/1 33/32/11 32/31/11 
s 17
f 32/31/11 33/32/11 34/33/11 
s 18
f 35/33/12 36/32/12 37/31/12 
s 19
f 36/32/12 38/30/2 37/31/12 
s 20
f 37/31/12 38/30/2 39/29/2 
s 21
f 38/30/2 40/28/12 39/29/2 
s 22
f 39/29/2 40/28/12 41/27/12 
s 23
f 40/28/12 42/26/12 41/27/12 
s 24
f 41/27/12 42/26/12 43/25/12 
s 25
f 10/30/11 9/28/11 2/2/11 
s 26
f 9/28/11 8/34/11 2/2/11 
s 27
f 2/2/11 8/34/11 44/35/11 
s 28
f 45/35/12 7/34/12 5/2/12 
s 29
f 7/34/12 40/28/2 5/2/12 
s 30
f 5/2/12 40/28/2 38/30/2 
s 31
f 46/36/1 11/37/1 1/1/11 
s 32
f 11/37/11 10/30/11 1/1/11 
s 33
f 1/1/11 10/30/11 2/2/11 
s 34
f 5/2/2 38/30/2 6/1/2 
s 35
f 38/30/2 12/37/12 6/1/2 
s 36
f 6/1/2 12/37/12 47/36/12 
s 37
f 3/3/1 48/38/1 1/1/11 
s 38
f 48/38/1 49/39/1 1/1/11 
s 39
f 1/1/11 49/39/1 50/40/11 
s 40
f 51/40/12 52/39/12 6/1/12 
s 41
f 52/39/12 53/38/12 6/1/12 
s 42
f 6/1/12 53/38/12 4/3/2 
s 43
f 31/29/11 32/31/1 54/41/11 
s 44
f 32/31/1 55/42/1 54/41/11 
s 45
f 39/29/12 56/41/12 37/31/12 
s 46
f 56/41/12 57/42/12 37/31/12 
s 47
f 30/27/11 31/29/1 58/43/11 
s 48
f 31/29/1 59/44/1 58/43/11 
s 49
f 41/27/12 60/43/12 39/29/12 
s 50
f 60/43/12 61/44/12 39/29/12 
s 51
f 39/45/13 61/46/13 31/47/13 
s 52
f 61/46/13 59/48/13 31/47/13 
s 53
f 39/45/14 31/47/14 56/49/14 
s 54
f 31/47/14 54/50/14 56/49/14 
s 55
f 47/51/15 12/9/15 46/52/15 
s 56
f 12/9/15 11/8/15 46/52/15 
s 57
f 6/53/16 47/51/16 1/54/16 
s 58
f 47/51/16 46/52/16 1/54/16 
s 59
f 6/53/17 1/54/17 51/55/17 
s 60
f 1/54/17 50/56/17 51/55/17 
s 61
f 29/5/18 42/4/18 9/6/19 
s 62
f 42/4/18 40/57/20 9/6/19 
s 63
f 9/6/19 40/57/20 7/4/3 
s 64
f 12/9/4 38/58/21 10/7/22 
s 65
f 38/58/21 36/9/23 10/7/22 
s 66
f 10/7/22 36/9/23 33/8/23 
s 67
f 7/4/24 45/59/24 8/5/24 
s 68
f 45/59/24 44/60/24 8/5/24 
s 69
f 5/61/25 2/62/25 45/59/25 
s 70
f 2/62/25 44/60/25 45/59/25 
s 71
f 5/61/26 4/63/26 2/62/26 
s 72
f 4/63/26 3/64/26 2/62/26 
s 73
f 56/49/27 54/50/27 57/53/27 
s 74
f 54/50/27 55/54/27 57/53/27 
s 75
f 35/51/28 34/52/28 36/9/28 
s 76
f 34/52/28 33/8/28 36/9/28 
s 77
f 37/65/29 32/66/29 35/51/29 
s 78
f 32/66/29 34/52/29 35/51/29 
s 79
f 37/65/30 57/53/30 32/66/30 
s 80
f 57/53/30 55/54/30 32/66/30 
s 81
f 60/63/31 58/64/31 61/46/31 
s 82
f 58/64/31 59/48/31 61/46/31 
s 83
f 42/4/32 29/5/32 43/67/32 
s 84
f 29/5/32 28/68/32 43/67/32 
s 85
f 41/61/33 43/67/33 30/62/33 
s 86
f 43/67/33 28/68/33 30/62/33 
s 87
f 41/61/34 30/62/34 60/63/34 
s 88
f 30/62/34 58/64/34 60/63/34 
s 89
f 52/69/35 51/55/35 49/70/35 
s 90
f 51/55/35 50/56/35 49/70/35 
s 91
f 53/71/36 52/69/36 48/72/36 
s 92
f 52/69/36 49/70/36 48/72/36 
s 93
f 4/63/37 53/71/37 3/64/37 
s 94
f 53/71/37 48/72/37 3/64/37 
s 95
f 62/73/38 24/21/38 63/74/38 
s 96
f 24/21/38 23/20/38 63/74/38 
s 97
f 62/73/39 63/74/39 64/75/39 
s 98
f 63/74/39 65/76/39 64/75/39 
s 99
f 66/77/40 64/75/40 67/78/40 
s 100
f 64/75/40 65/76/40 67/78/40 
s 101
f 68/79/41 66/77/41 69/80/41 
s 102
f 66/77/41 67/78/41 69/80/41 
s 103
f 68/79/42 69/80/42 70/81/42 
s 104
f 69/80/42 71/82/42 70/81/42 
s 105
f 70/81/43 71/82/43 72/83/43 
s 106
f 71/82/43 73/84/43 72/83/43 
s 107
f 15/12/5 74/85/44 13/10/45 
s 108
f 74/85/44 72/83/6 13/10/45 
s 109
f 13/10/45 72/83/6 73/84/6 
s 110
f 18/15/6 75/86/46 16/13/47 
s 111
f 75/86/46 15/87/48 16/13/47 
s 112
f 16/13/47 15/87/48 14/88/48 
s 113
f 76/89/49 77/90/50 78/91/51 
s 114
f 77/90/50 18/15/1 78/91/51 
s 115
f 78/91/51 18/15/1 17/14/1 
s 116
f 21/18/7 79/92/52 19/16/53 
s 117
f 79/92/52 76/89/54 19/16/53 
s 118
f 19/16/53 76/89/54 80/93/55 
s 119
f 76/89/54 78/91/49 80/93/55 
s 120
f 24/21/8 81/94/56 22/19/57 
s 121
f 81/94/56 21/18/58 22/19/57 
s 122
f 22/19/57 21/18/58 20/17/58 
s 123
f 27/24/59 26/23/60 82/95/61 
s 124
f 26/23/60 83/96/62 82/95/61 
s 125
f 82/95/61 83/96/62 84/97/1 
s 126
f 82/95/1 84/97/1 85/98/1 
s 127
f 84/97/1 86/99/1 85/98/1 
s 128
f 84/97/12 83/96/63 82/95/64 
s 129
f 83/96/63 26/23/65 82/95/64 
s 130
f 82/95/64 26/23/65 27/24/66 
s 131
f 82/95/2 85/98/2 84/97/2 
s 132
f 85/98/2 86/99/12 84/97/2 
s 133
f 87/100/67 24/101/68 62/102/67 
s 134
f 87/100/67 62/102/67 64/103/68 
s 135
f 87/100/67 64/103/68 66/104/67 
s 136
f 87/100/67 66/104/67 68/105/67 
s 137
f 87/100/67 68/105/67 70/106/67 
s 138
f 87/100/67 70/106/67 72/107/67 
s 139
f 87/100/67 72/107/67 74/108/68 
s 140
f 87/100/67 74/108/68 15/109/68 
s 141
f 87/100/67 15/109/68 75/110/67 
s 142
f 87/100/67 75/110/67 18/111/67 
s 143
f 87/100/67 18/111/67 77/112/68 
s 144
f 87/100/67 77/112/68 76/113/67 
s 145
f 87/100/67 76/113/67 79/114/67 
s 146
f 87/100/67 79/114/67 21/115/67 
s 147
f 87/100/67 21/115/67 81/116/67 
s 148
f 87/100/67 81/116/67 24/101/68 
s 149
f 88/117/69 23/118/69 22/119/69 
s 150
f 88/117/69 22/119/69 20/120/69 
s 151
f 88/117/69 20/120/69 19/121/69 
s 152
f 88/117/69 19/121/69 80/122/69 
s 153
f 88/117/69 80/122/69 78/123/69 
s 154
f 88/117/69 78/123/69 17/124/69 
s 155
f 88/117/69 17/124/69 16/125/69 
s 156
f 88/117/69 16/125/69 14/126/69 
s 157
f 88/117/69 14/126/69 13/127/69 
s 158
f 88/117/69 13/127/69 73/128/69 
s 159
f 88/117/69 73/128/69 71/129/69 
s 160
f 88/117/69 71/129/69 69/130/69 
s 161
f 88/117/69 69/130/69 67/131/69 
s 162
f 88/117/69 67/131/69 65/132/69 
s 163
f 88/117/69 65/132/69 63/133/69 
s 164
f 88/117/69 63/133/69 23/118/69 
# 0 polygons - 164 triangles

